<?xml version="1.0" encoding="utf-8"?>
<!-- Generator: Adobe Illustrator 24.3.0, SVG Export Plug-In . SVG Version: 6.00 Build 0)  -->
<svg version="1.1" id="Layer_1" xmlns="http://www.w3.org/2000/svg" xmlns:xlink="http://www.w3.org/1999/xlink" x="0px" y="0px"
	 viewBox="0 0 32 32" style="enable-background:new 0 0 32 32;" xml:space="preserve">
<style type="text/css">
	.st0{fill:#FFFFFF;fill-opacity:5.000000e-02;}
	.st1{fill:none;stroke:#FFFFFF;stroke-opacity:0.15;}
	.st2{fill:#FFFFFF;}
</style>
<path class="st0" d="M16,0L16,0c8.8,0,16,7.2,16,16l0,0c0,8.8-7.2,16-16,16l0,0C7.2,32,0,24.8,0,16l0,0C0,7.2,7.2,0,16,0z"/>
<path class="st1" d="M16,0.5L16,0.5c8.6,0,15.5,6.9,15.5,15.5l0,0c0,8.6-6.9,15.5-15.5,15.5l0,0C7.4,31.5,0.5,24.6,0.5,16l0,0
	C0.5,7.4,7.4,0.5,16,0.5z"/>
<g>
	<path class="st2" d="M18.6,12.1c-1.4,0-2.8,0.6-3.6,1.7v-1.3h-0.8V23H15v-7c0-1.7,1.6-3,3.6-3s3.6,1.3,3.6,3v7H23v-7
		C23,13.9,21,12.1,18.6,12.1z"/>
	<rect x="11" y="9" class="st2" width="0.8" height="1.9"/>
	<rect x="11" y="12.4" class="st2" width="0.8" height="10.6"/>
</g>
</svg>
