<svg width="49" height="58" viewBox="0 0 49 58" fill="none" xmlns="http://www.w3.org/2000/svg">
<rect x="28.2852" y="0.900024" width="40" height="40" rx="20" transform="rotate(45 28.2852 0.900024)" fill="#161717" fill-opacity="0.05"/>
<path d="M33.1441 32.7402C33.0827 32.7418 33.0217 32.7308 32.9648 32.708C32.9078 32.6852 32.856 32.651 32.8126 32.6077C32.7692 32.5643 32.7351 32.5125 32.7123 32.4555C32.6895 32.3985 32.6785 32.3375 32.6801 32.2762L32.6745 25.4537L23.7528 34.3754C23.6649 34.4633 23.5456 34.5127 23.4214 34.5127C23.2971 34.5127 23.1778 34.4633 23.0899 34.3754C23.002 34.2875 22.9526 34.1682 22.9527 34.044C22.9526 33.9197 23.002 33.8004 23.0899 33.7125L32.0116 24.7908L25.1891 24.7853C25.066 24.7853 24.948 24.7364 24.861 24.6494C24.774 24.5623 24.7251 24.4443 24.7251 24.3212C24.7251 24.1982 24.774 24.0802 24.861 23.9931C24.948 23.9061 25.066 23.8572 25.1891 23.8573L33.1441 23.8572C33.2054 23.8557 33.2664 23.8667 33.3234 23.8895C33.3804 23.9123 33.4321 23.9464 33.4755 23.9898C33.5189 24.0332 33.553 24.0849 33.5758 24.1419C33.5986 24.1989 33.6096 24.2599 33.6081 24.3213L33.6081 32.2763C33.6096 32.3375 33.5986 32.3985 33.5758 32.4555C33.553 32.5125 33.5189 32.5643 33.4755 32.6077C33.4321 32.651 33.3804 32.6852 33.3234 32.708C33.2664 32.7308 33.2054 32.7418 33.1441 32.7402Z" fill="#161717"/>
<rect x="28.2852" y="1.60713" width="39" height="39" rx="19.5" transform="rotate(45 28.2852 1.60713)" stroke="#161717" stroke-opacity="0.15"/>
</svg>
