<svg width="33" height="33" viewBox="0 0 33 33" fill="none" xmlns="http://www.w3.org/2000/svg">
<rect x="0.5" y="0.899902" width="32" height="32" rx="16" fill="white" fill-opacity="0.05"/>
<g clip-path="url(#clip0_170_2469)">
<path d="M18.8906 13.5249C18.8906 13.413 18.9351 13.3057 19.0142 13.2266C19.0933 13.1475 19.2006 13.103 19.3125 13.103H23.8125C23.9244 13.103 24.0317 13.1475 24.1108 13.2266C24.1899 13.3057 24.2344 13.413 24.2344 13.5249C24.2344 13.6368 24.1899 13.7441 24.1108 13.8232C24.0317 13.9023 23.9244 13.9468 23.8125 13.9468H19.3125C19.2006 13.9468 19.0933 13.9023 19.0142 13.8232C18.9351 13.7441 18.8906 13.6368 18.8906 13.5249ZM24.7969 18.5874C24.7969 18.6993 24.7524 18.8066 24.6733 18.8857C24.5942 18.9648 24.4869 19.0093 24.375 19.0093H19.2071C19.3074 19.5611 19.598 20.0603 20.0284 20.42C20.4587 20.7797 21.0016 20.9772 21.5625 20.978C21.8765 20.98 22.1878 20.9188 22.4777 20.798C22.7676 20.6772 23.0302 20.4993 23.25 20.2749C23.33 20.1971 23.4373 20.1537 23.5488 20.1537C23.6604 20.1537 23.7676 20.1971 23.8477 20.2749C23.8879 20.3136 23.9198 20.36 23.9416 20.4113C23.9635 20.4627 23.9747 20.5179 23.9747 20.5737C23.9747 20.6295 23.9635 20.6848 23.9416 20.7361C23.9198 20.7875 23.8879 20.8339 23.8477 20.8726C23.3181 21.4013 22.6215 21.73 21.8768 21.8027C21.1319 21.8754 20.385 21.6876 19.7631 21.2713C19.1413 20.855 18.683 20.2359 18.4665 19.5196C18.25 18.8033 18.2885 18.034 18.5756 17.3429C18.8626 16.6518 19.3805 16.0817 20.0408 15.7296C20.7011 15.3775 21.4631 15.2653 22.1969 15.4121C22.9307 15.5589 23.591 15.9556 24.065 16.5346C24.5391 17.1136 24.7978 17.8391 24.7969 18.5874ZM23.9179 18.1655C23.8217 17.6106 23.5327 17.1075 23.1017 16.7449C22.6708 16.3823 22.1257 16.1834 21.5625 16.1834C20.9993 16.1834 20.4542 16.3823 20.0233 16.7449C19.5923 17.1075 19.3033 17.6106 19.2071 18.1655H23.9179ZM17.2031 19.0093C17.2031 19.7552 16.9068 20.4706 16.3794 20.9981C15.8519 21.5255 15.1366 21.8218 14.3906 21.8218H9.75C9.63811 21.8218 9.53081 21.7773 9.45169 21.6982C9.37257 21.6191 9.32812 21.5118 9.32812 21.3999V12.3999C9.32812 12.288 9.37257 12.1807 9.45169 12.1016C9.53081 12.0225 9.63811 11.978 9.75 11.978H13.5469C14.0531 11.978 14.5477 12.1297 14.9668 12.4135C15.3859 12.6974 15.7102 13.1004 15.898 13.5705C16.0857 14.0406 16.1282 14.5562 16.0199 15.0507C15.9116 15.5451 15.6576 15.9958 15.2906 16.3445C15.8481 16.5327 16.3325 16.8911 16.6756 17.3692C17.0187 17.8472 17.2032 18.4208 17.2031 19.0093ZM10.1719 16.1968H13.5469C13.9944 16.1968 14.4236 16.019 14.7401 15.7025C15.0566 15.386 15.2344 14.9568 15.2344 14.5093C15.2344 14.0617 15.0566 13.6325 14.7401 13.316C14.4236 12.9996 13.9944 12.8218 13.5469 12.8218H10.1719V16.1968ZM16.3594 19.0093C16.3575 18.4877 16.1495 17.988 15.7807 17.6192C15.4119 17.2504 14.9122 17.0424 14.3906 17.0405H10.1719V20.978H14.3906C14.9122 20.9762 15.4119 20.7682 15.7807 20.3993C16.1495 20.0306 16.3575 19.5308 16.3594 19.0093Z" fill="white"/>
</g>
<rect x="1" y="1.3999" width="31" height="31" rx="15.5" stroke="white" stroke-opacity="0.15"/>
<defs>
<clipPath id="clip0_170_2469">
<rect width="18" height="18" fill="white" transform="translate(7.5 7.8999)"/>
</clipPath>
</defs>
</svg>
