<svg width="956" height="400" viewBox="0 0 956 400" fill="none" xmlns="http://www.w3.org/2000/svg">
<g clip-path="url(#clip0_243_204)">
<g opacity="0.15">
<mask id="path-1-outside-1_243_204" maskUnits="userSpaceOnUse" x="-1" y="35" width="958" height="331" fill="black">
<rect fill="white" x="-1" y="35" width="958" height="331"/>
<path d="M194.709 39.9252C196.409 42.6729 197.913 46.7944 199.221 52.2897C200.659 57.785 201.379 63.8037 201.379 70.3458C201.379 72.5701 201.182 74.8598 200.79 77.215C200.529 79.5701 200.005 81.729 199.221 83.6916C198.436 85.6542 197.39 87.2897 196.082 88.5981C194.775 89.9065 193.074 90.5607 190.982 90.5607C186.928 90.5607 183.528 89.514 180.782 87.4206C178.036 85.3271 175.616 82.7103 173.524 79.5701C171.432 76.2991 169.535 72.8318 167.835 69.1682C166.266 65.3738 164.566 61.9065 162.735 58.7664C160.904 55.4953 158.812 52.8131 156.458 50.7196C154.235 48.6262 151.489 47.5794 148.22 47.5794C147.043 47.5794 145.473 47.9065 143.512 48.5607C141.55 49.0841 139.589 50.1963 137.627 51.8972C135.796 53.4673 134.161 55.6262 132.723 58.3738C131.284 61.1215 130.434 64.6542 130.173 68.972V130.206C130.173 136.486 131.023 142.57 132.723 148.458C134.554 154.215 137.038 159.318 140.177 163.766C143.316 168.215 147.043 171.813 151.358 174.561C155.804 177.178 160.643 178.486 165.874 178.486C168.489 178.486 171.628 177.57 175.289 175.738C179.082 173.776 182.678 170.766 186.078 166.71C189.478 162.523 192.421 157.224 194.905 150.813C197.39 144.271 198.632 136.421 198.632 127.262H200.202V181.626H166.07C157.047 181.626 148.677 180.252 140.962 177.505C133.246 174.626 126.511 170.636 120.757 165.533C115.134 160.299 110.688 154.084 107.418 146.888C104.28 139.692 102.711 131.71 102.711 122.944V66.6168C102.711 63.7383 103.038 60.5327 103.691 57C104.476 53.4673 105.784 50.1308 107.615 46.9907C109.576 43.8505 112.257 41.2336 115.657 39.1402C119.057 37.0467 123.438 36 128.8 36C135.6 36 141.223 37.3738 145.669 40.1215C150.246 42.8692 154.366 45.9439 158.027 49.3458C161.82 52.7477 165.481 55.8879 169.012 58.7664C172.674 61.514 176.859 62.8879 181.567 62.8879C183.79 62.8879 185.817 62.1682 187.647 60.729C189.478 59.2897 190.917 57.4579 191.963 55.2336C193.009 53.0093 193.663 50.5888 193.925 47.972C194.317 45.2243 194.186 42.6729 193.532 40.3178L194.709 39.9252ZM237.535 181.626H213.603V44.243H253.227C259.374 44.243 265.258 44.7664 270.882 45.8131C276.505 46.8598 281.474 48.757 285.79 51.5047C290.105 54.1215 293.505 57.7196 295.99 62.2991C298.605 66.7477 299.913 72.4393 299.913 79.3738C299.913 89.7103 296.971 97.9533 291.086 104.103C285.332 110.121 277.486 114.047 267.547 115.879L299.717 181.626H275.197L243.616 117.056H237.731L237.535 181.626ZM253.227 98.4112C256.497 98.4112 259.504 98.215 262.251 97.8224C264.997 97.2991 267.351 96.3832 269.312 95.0748C271.405 93.7664 272.974 91.9346 274.02 89.5794C275.197 87.2243 275.786 84.215 275.786 80.5514C275.786 76.8878 275.197 73.8785 274.02 71.5234C272.974 69.1682 271.405 67.4019 269.312 66.2243C267.351 64.9159 264.997 64.0654 262.251 63.6729C259.504 63.1495 256.497 62.8879 253.227 62.8879H237.731V98.4112H253.227ZM335.7 163.963H418.479V181.626H311.768V44.243H417.89V61.9065H335.896V104.103H417.89V121.766H335.896L335.7 163.963ZM484.951 153.168H452.977L448.465 181.626H424.73L446.111 44.243H492.601L513.982 181.626H489.462L484.951 153.168ZM482.204 134.523L469.062 49.9346L455.723 134.523H482.204ZM505.008 44.4392H595.241V62.1028H562.286L562.482 181.626H538.159V62.1028H505.008V44.4392ZM633.716 181.626H609.392V44.243H633.519L633.716 181.626ZM734.693 44.243L713.312 181.626H667.607L646.225 44.243H669.961L690.557 175.935L710.958 44.243H734.693ZM770.353 163.963H853.132V181.626H746.421V44.243H852.543V61.9065H770.549V104.103H852.543V121.766H770.549L770.353 163.963ZM53.3936 237.037C51.8243 234.682 50.4512 231.935 49.2742 228.794C48.0973 225.523 47.3127 222.121 46.9203 218.589C46.528 215.056 46.528 211.393 46.9203 207.598C47.4434 203.804 48.4896 200.14 50.0589 196.607L33.9739 207.402C30.7045 210.15 28.743 213.028 28.0891 216.037C27.4352 218.916 27.1083 221.467 27.1083 223.692C27.1083 228.664 28.4814 233.308 31.2276 237.626C33.9739 241.813 37.5701 245.804 42.0164 249.598C46.5934 253.393 51.7589 256.991 57.5129 260.393C63.2669 263.664 69.1517 267 75.1672 270.402C81.1827 273.673 87.0675 277.009 92.8215 280.411C98.5755 283.813 103.676 287.411 108.122 291.206C112.699 295 116.361 299.056 119.107 303.374C121.853 307.561 123.226 312.206 123.226 317.308C123.226 322.28 121.853 326.925 119.107 331.243C116.361 335.561 112.764 339.486 108.318 343.019C103.872 346.551 98.7717 349.692 93.0177 352.439C87.3944 355.187 81.6404 357.477 75.7557 359.308C70.0017 361.14 64.3785 362.514 58.886 363.43C53.5244 364.477 48.8165 365 44.7626 365C37.3086 365 30.1161 363.299 23.1851 359.897C16.3849 356.626 10.8925 352.243 6.70778 346.748C2.65383 341.383 0.430697 335.364 0.0383789 328.692C-0.353939 321.888 2.26151 315.084 7.88473 308.28L49.4704 286.299L50.8435 287.869C42.9972 291.664 37.2432 296.112 33.5815 301.215C30.0507 306.187 28.2852 312.075 28.2852 318.879C28.2852 324.374 29.7237 329.346 32.6007 333.794C35.4777 338.112 39.2048 341.841 43.7818 344.981C48.3588 348.121 53.3936 350.477 58.886 352.047C64.5092 353.748 69.9363 354.598 75.1672 354.598C78.8288 354.598 82.2943 354.14 85.5636 353.224C88.9637 352.439 91.9061 351.131 94.3908 349.299C96.8755 347.598 98.837 345.374 100.276 342.626C101.714 339.878 102.433 336.607 102.433 332.813C102.433 324.439 100.079 317.505 95.3716 312.009C90.7945 306.514 84.9752 301.738 77.9134 297.682C70.8517 293.495 63.2669 289.701 55.159 286.299C47.0511 282.766 39.4663 278.841 32.4046 274.523C25.3429 270.206 19.4581 265.103 14.7503 259.215C10.1733 253.327 7.88473 245.869 7.88473 236.841C7.88473 232.393 9.51939 228.14 12.7887 224.084C16.058 219.897 19.9812 216.037 24.5582 212.505C29.1353 208.841 33.8431 205.505 38.6817 202.495C43.651 199.486 47.705 196.935 50.8435 194.841C55.8129 205.701 61.1745 213.813 66.9285 219.178C72.8133 224.542 78.4365 227.224 83.7982 227.224C88.3752 227.224 92.4292 225.196 95.9601 221.14C99.4909 216.953 101.91 210.673 103.218 202.299H104.591L96.9408 253.327C92.8869 253.327 88.7676 253.131 84.5828 252.738C80.5289 252.346 76.5403 251.561 72.6171 250.383C68.8247 249.206 65.2285 247.57 61.8284 245.477C58.5591 243.252 55.7475 240.439 53.3936 237.037ZM151.614 267.654H190.453V207.794H214.581L214.777 345.178H190.453V285.318H151.81V345.178H127.486V207.794H151.614V267.654ZM222.838 277.271C222.838 266.804 224.407 257.318 227.546 248.813C230.815 240.308 235.327 233.047 241.081 227.028C246.966 220.878 253.962 216.168 262.07 212.897C270.308 209.495 279.463 207.794 289.532 207.794C299.471 207.794 308.494 209.495 316.602 212.897C324.841 216.168 331.837 220.878 337.591 227.028C343.345 233.047 347.791 240.308 350.93 248.813C354.199 257.318 355.834 266.804 355.834 277.271C355.834 287.607 354.199 297.093 350.93 305.729C347.791 314.234 343.345 321.561 337.591 327.71C331.837 333.729 324.841 338.439 316.602 341.841C308.494 345.112 299.471 346.748 289.532 346.748C279.463 346.748 270.308 345.112 262.07 341.841C253.962 338.439 246.966 333.729 241.081 327.71C235.327 321.561 230.815 314.234 227.546 305.729C224.407 297.093 222.838 287.607 222.838 277.271ZM242.846 277.271C242.846 284.467 243.958 291.075 246.181 297.093C248.404 303.112 251.543 308.28 255.597 312.598C259.65 316.785 264.554 320.056 270.308 322.411C276.062 324.766 282.47 325.944 289.532 325.944C296.463 325.944 302.74 324.766 308.363 322.411C314.117 320.056 319.021 316.785 323.075 312.598C327.129 308.28 330.268 303.112 332.491 297.093C334.714 291.075 335.826 284.467 335.826 277.271C335.826 269.944 334.714 263.336 332.491 257.449C330.268 251.43 327.129 246.327 323.075 242.14C319.021 237.822 314.117 234.486 308.363 232.131C302.74 229.776 296.463 228.598 289.532 228.598C282.47 228.598 276.062 229.776 270.308 232.131C264.554 234.486 259.65 237.822 255.597 242.14C251.543 246.327 248.404 251.43 246.181 257.449C243.958 263.336 242.846 269.944 242.846 277.271ZM430.959 232.327L410.559 345.178H363.677V207.794H386.824L388.393 336.935L411.736 207.598H450.968L474.507 336.542V207.794H497.653L499.223 345.178H451.556L430.959 232.327ZM529.085 277.271C529.085 284.467 530.196 291.075 532.42 297.093C534.643 303.112 537.781 308.28 541.835 312.598C545.889 316.785 550.793 320.056 556.547 322.411C562.301 324.766 568.709 325.944 575.771 325.944C586.232 325.944 595.321 323.523 603.037 318.682C610.883 313.841 616.049 306.776 618.533 297.486H641.484C639.653 305.075 636.711 311.944 632.657 318.093C628.733 324.112 623.895 329.28 618.141 333.598C612.518 337.785 606.11 341.056 598.917 343.411C591.725 345.636 584.009 346.748 575.771 346.748C565.701 346.748 556.547 345.112 548.308 341.841C540.2 338.439 533.204 333.729 527.319 327.71C521.565 321.561 517.054 314.234 513.784 305.729C510.646 297.093 509.077 287.607 509.077 277.271C509.077 266.804 510.646 257.318 513.784 248.813C517.054 240.308 521.565 233.047 527.319 227.028C533.204 220.878 540.2 216.168 548.308 212.897C556.547 209.495 565.701 207.794 575.771 207.794C585.186 207.794 593.621 209.299 601.075 212.308C608.529 215.318 614.806 219.57 619.906 225.065C625.137 230.561 629.126 237.103 631.872 244.692C634.749 252.28 636.188 260.654 636.188 269.813H615.983C614.675 242.336 601.271 228.598 575.771 228.598C568.709 228.598 562.301 229.776 556.547 232.131C550.793 234.486 545.889 237.822 541.835 242.14C537.781 246.327 534.643 251.43 532.42 257.449C530.196 263.336 529.085 269.944 529.085 277.271ZM705.438 316.72H673.464L668.952 345.178H645.217L666.598 207.794H713.088L734.469 345.178H709.949L705.438 316.72ZM702.692 298.075L689.549 213.486L676.21 298.075H702.692ZM815.561 311.421C815.561 306.318 813.926 302.196 810.657 299.056C807.518 295.916 803.465 293.103 798.495 290.617C793.657 288 788.426 285.579 782.802 283.355C777.179 281 771.883 278.187 766.914 274.916C762.075 271.514 758.021 267.393 754.752 262.551C751.613 257.579 750.044 251.364 750.044 243.907C750.044 237.757 751.156 232.327 753.379 227.617C755.733 222.907 758.871 218.981 762.794 215.841C766.717 212.701 771.36 210.346 776.722 208.776C782.214 207.075 788.099 206.224 794.376 206.224C801.699 206.224 808.172 207.336 813.796 209.561C819.419 211.654 824.061 214.664 827.723 218.589C831.515 222.383 834.327 226.963 836.158 232.327C838.119 237.692 839.1 243.645 839.1 250.187H814.973C814.973 247.308 814.711 244.626 814.188 242.14C813.665 239.523 812.619 237.299 811.049 235.467C809.48 233.505 807.322 231.935 804.576 230.757C801.961 229.579 798.495 228.991 794.18 228.991C791.695 228.991 789.21 229.187 786.726 229.579C784.372 229.972 782.279 230.692 780.449 231.738C778.618 232.785 777.114 234.224 775.937 236.056C774.76 237.888 774.171 240.178 774.171 242.925C774.171 247.636 775.741 251.626 778.879 254.897C782.149 258.037 786.203 260.916 791.041 263.533C795.88 266.15 801.045 268.766 806.538 271.383C812.161 274 817.392 277.075 822.23 280.607C827.069 284.009 831.058 288.196 834.196 293.168C837.465 298.009 839.1 304.093 839.1 311.421C839.1 322.542 835.177 331.243 827.331 337.523C819.484 343.673 808.172 346.748 793.395 346.748C784.503 346.748 776.787 345.57 770.248 343.215C763.84 340.729 758.544 337.458 754.359 333.402C750.175 329.346 747.102 324.701 745.14 319.467C743.178 314.103 742.198 308.477 742.198 302.589H766.325C766.325 305.729 767.044 308.673 768.483 311.421C769.921 314.168 771.883 316.589 774.368 318.682C776.852 320.776 779.729 322.477 782.999 323.785C786.399 324.963 790.06 325.551 793.984 325.551C796.991 325.551 799.803 325.355 802.418 324.963C805.034 324.57 807.322 323.85 809.284 322.804C811.246 321.757 812.749 320.318 813.796 318.486C814.972 316.654 815.561 314.299 815.561 311.421ZM873.221 327.514H956V345.178H849.29V207.794H955.411V225.458H873.417V267.654H955.411V285.318H873.417L873.221 327.514Z"/>
</mask>
<path d="M194.709 39.9252C196.409 42.6729 197.913 46.7944 199.221 52.2897C200.659 57.785 201.379 63.8037 201.379 70.3458C201.379 72.5701 201.182 74.8598 200.79 77.215C200.529 79.5701 200.005 81.729 199.221 83.6916C198.436 85.6542 197.39 87.2897 196.082 88.5981C194.775 89.9065 193.074 90.5607 190.982 90.5607C186.928 90.5607 183.528 89.514 180.782 87.4206C178.036 85.3271 175.616 82.7103 173.524 79.5701C171.432 76.2991 169.535 72.8318 167.835 69.1682C166.266 65.3738 164.566 61.9065 162.735 58.7664C160.904 55.4953 158.812 52.8131 156.458 50.7196C154.235 48.6262 151.489 47.5794 148.22 47.5794C147.043 47.5794 145.473 47.9065 143.512 48.5607C141.55 49.0841 139.589 50.1963 137.627 51.8972C135.796 53.4673 134.161 55.6262 132.723 58.3738C131.284 61.1215 130.434 64.6542 130.173 68.972V130.206C130.173 136.486 131.023 142.57 132.723 148.458C134.554 154.215 137.038 159.318 140.177 163.766C143.316 168.215 147.043 171.813 151.358 174.561C155.804 177.178 160.643 178.486 165.874 178.486C168.489 178.486 171.628 177.57 175.289 175.738C179.082 173.776 182.678 170.766 186.078 166.71C189.478 162.523 192.421 157.224 194.905 150.813C197.39 144.271 198.632 136.421 198.632 127.262H200.202V181.626H166.07C157.047 181.626 148.677 180.252 140.962 177.505C133.246 174.626 126.511 170.636 120.757 165.533C115.134 160.299 110.688 154.084 107.418 146.888C104.28 139.692 102.711 131.71 102.711 122.944V66.6168C102.711 63.7383 103.038 60.5327 103.691 57C104.476 53.4673 105.784 50.1308 107.615 46.9907C109.576 43.8505 112.257 41.2336 115.657 39.1402C119.057 37.0467 123.438 36 128.8 36C135.6 36 141.223 37.3738 145.669 40.1215C150.246 42.8692 154.366 45.9439 158.027 49.3458C161.82 52.7477 165.481 55.8879 169.012 58.7664C172.674 61.514 176.859 62.8879 181.567 62.8879C183.79 62.8879 185.817 62.1682 187.647 60.729C189.478 59.2897 190.917 57.4579 191.963 55.2336C193.009 53.0093 193.663 50.5888 193.925 47.972C194.317 45.2243 194.186 42.6729 193.532 40.3178L194.709 39.9252ZM237.535 181.626H213.603V44.243H253.227C259.374 44.243 265.258 44.7664 270.882 45.8131C276.505 46.8598 281.474 48.757 285.79 51.5047C290.105 54.1215 293.505 57.7196 295.99 62.2991C298.605 66.7477 299.913 72.4393 299.913 79.3738C299.913 89.7103 296.971 97.9533 291.086 104.103C285.332 110.121 277.486 114.047 267.547 115.879L299.717 181.626H275.197L243.616 117.056H237.731L237.535 181.626ZM253.227 98.4112C256.497 98.4112 259.504 98.215 262.251 97.8224C264.997 97.2991 267.351 96.3832 269.312 95.0748C271.405 93.7664 272.974 91.9346 274.02 89.5794C275.197 87.2243 275.786 84.215 275.786 80.5514C275.786 76.8878 275.197 73.8785 274.02 71.5234C272.974 69.1682 271.405 67.4019 269.312 66.2243C267.351 64.9159 264.997 64.0654 262.251 63.6729C259.504 63.1495 256.497 62.8879 253.227 62.8879H237.731V98.4112H253.227ZM335.7 163.963H418.479V181.626H311.768V44.243H417.89V61.9065H335.896V104.103H417.89V121.766H335.896L335.7 163.963ZM484.951 153.168H452.977L448.465 181.626H424.73L446.111 44.243H492.601L513.982 181.626H489.462L484.951 153.168ZM482.204 134.523L469.062 49.9346L455.723 134.523H482.204ZM505.008 44.4392H595.241V62.1028H562.286L562.482 181.626H538.159V62.1028H505.008V44.4392ZM633.716 181.626H609.392V44.243H633.519L633.716 181.626ZM734.693 44.243L713.312 181.626H667.607L646.225 44.243H669.961L690.557 175.935L710.958 44.243H734.693ZM770.353 163.963H853.132V181.626H746.421V44.243H852.543V61.9065H770.549V104.103H852.543V121.766H770.549L770.353 163.963ZM53.3936 237.037C51.8243 234.682 50.4512 231.935 49.2742 228.794C48.0973 225.523 47.3127 222.121 46.9203 218.589C46.528 215.056 46.528 211.393 46.9203 207.598C47.4434 203.804 48.4896 200.14 50.0589 196.607L33.9739 207.402C30.7045 210.15 28.743 213.028 28.0891 216.037C27.4352 218.916 27.1083 221.467 27.1083 223.692C27.1083 228.664 28.4814 233.308 31.2276 237.626C33.9739 241.813 37.5701 245.804 42.0164 249.598C46.5934 253.393 51.7589 256.991 57.5129 260.393C63.2669 263.664 69.1517 267 75.1672 270.402C81.1827 273.673 87.0675 277.009 92.8215 280.411C98.5755 283.813 103.676 287.411 108.122 291.206C112.699 295 116.361 299.056 119.107 303.374C121.853 307.561 123.226 312.206 123.226 317.308C123.226 322.28 121.853 326.925 119.107 331.243C116.361 335.561 112.764 339.486 108.318 343.019C103.872 346.551 98.7717 349.692 93.0177 352.439C87.3944 355.187 81.6404 357.477 75.7557 359.308C70.0017 361.14 64.3785 362.514 58.886 363.43C53.5244 364.477 48.8165 365 44.7626 365C37.3086 365 30.1161 363.299 23.1851 359.897C16.3849 356.626 10.8925 352.243 6.70778 346.748C2.65383 341.383 0.430697 335.364 0.0383789 328.692C-0.353939 321.888 2.26151 315.084 7.88473 308.28L49.4704 286.299L50.8435 287.869C42.9972 291.664 37.2432 296.112 33.5815 301.215C30.0507 306.187 28.2852 312.075 28.2852 318.879C28.2852 324.374 29.7237 329.346 32.6007 333.794C35.4777 338.112 39.2048 341.841 43.7818 344.981C48.3588 348.121 53.3936 350.477 58.886 352.047C64.5092 353.748 69.9363 354.598 75.1672 354.598C78.8288 354.598 82.2943 354.14 85.5636 353.224C88.9637 352.439 91.9061 351.131 94.3908 349.299C96.8755 347.598 98.837 345.374 100.276 342.626C101.714 339.878 102.433 336.607 102.433 332.813C102.433 324.439 100.079 317.505 95.3716 312.009C90.7945 306.514 84.9752 301.738 77.9134 297.682C70.8517 293.495 63.2669 289.701 55.159 286.299C47.0511 282.766 39.4663 278.841 32.4046 274.523C25.3429 270.206 19.4581 265.103 14.7503 259.215C10.1733 253.327 7.88473 245.869 7.88473 236.841C7.88473 232.393 9.51939 228.14 12.7887 224.084C16.058 219.897 19.9812 216.037 24.5582 212.505C29.1353 208.841 33.8431 205.505 38.6817 202.495C43.651 199.486 47.705 196.935 50.8435 194.841C55.8129 205.701 61.1745 213.813 66.9285 219.178C72.8133 224.542 78.4365 227.224 83.7982 227.224C88.3752 227.224 92.4292 225.196 95.9601 221.14C99.4909 216.953 101.91 210.673 103.218 202.299H104.591L96.9408 253.327C92.8869 253.327 88.7676 253.131 84.5828 252.738C80.5289 252.346 76.5403 251.561 72.6171 250.383C68.8247 249.206 65.2285 247.57 61.8284 245.477C58.5591 243.252 55.7475 240.439 53.3936 237.037ZM151.614 267.654H190.453V207.794H214.581L214.777 345.178H190.453V285.318H151.81V345.178H127.486V207.794H151.614V267.654ZM222.838 277.271C222.838 266.804 224.407 257.318 227.546 248.813C230.815 240.308 235.327 233.047 241.081 227.028C246.966 220.878 253.962 216.168 262.07 212.897C270.308 209.495 279.463 207.794 289.532 207.794C299.471 207.794 308.494 209.495 316.602 212.897C324.841 216.168 331.837 220.878 337.591 227.028C343.345 233.047 347.791 240.308 350.93 248.813C354.199 257.318 355.834 266.804 355.834 277.271C355.834 287.607 354.199 297.093 350.93 305.729C347.791 314.234 343.345 321.561 337.591 327.71C331.837 333.729 324.841 338.439 316.602 341.841C308.494 345.112 299.471 346.748 289.532 346.748C279.463 346.748 270.308 345.112 262.07 341.841C253.962 338.439 246.966 333.729 241.081 327.71C235.327 321.561 230.815 314.234 227.546 305.729C224.407 297.093 222.838 287.607 222.838 277.271ZM242.846 277.271C242.846 284.467 243.958 291.075 246.181 297.093C248.404 303.112 251.543 308.28 255.597 312.598C259.65 316.785 264.554 320.056 270.308 322.411C276.062 324.766 282.47 325.944 289.532 325.944C296.463 325.944 302.74 324.766 308.363 322.411C314.117 320.056 319.021 316.785 323.075 312.598C327.129 308.28 330.268 303.112 332.491 297.093C334.714 291.075 335.826 284.467 335.826 277.271C335.826 269.944 334.714 263.336 332.491 257.449C330.268 251.43 327.129 246.327 323.075 242.14C319.021 237.822 314.117 234.486 308.363 232.131C302.74 229.776 296.463 228.598 289.532 228.598C282.47 228.598 276.062 229.776 270.308 232.131C264.554 234.486 259.65 237.822 255.597 242.14C251.543 246.327 248.404 251.43 246.181 257.449C243.958 263.336 242.846 269.944 242.846 277.271ZM430.959 232.327L410.559 345.178H363.677V207.794H386.824L388.393 336.935L411.736 207.598H450.968L474.507 336.542V207.794H497.653L499.223 345.178H451.556L430.959 232.327ZM529.085 277.271C529.085 284.467 530.196 291.075 532.42 297.093C534.643 303.112 537.781 308.28 541.835 312.598C545.889 316.785 550.793 320.056 556.547 322.411C562.301 324.766 568.709 325.944 575.771 325.944C586.232 325.944 595.321 323.523 603.037 318.682C610.883 313.841 616.049 306.776 618.533 297.486H641.484C639.653 305.075 636.711 311.944 632.657 318.093C628.733 324.112 623.895 329.28 618.141 333.598C612.518 337.785 606.11 341.056 598.917 343.411C591.725 345.636 584.009 346.748 575.771 346.748C565.701 346.748 556.547 345.112 548.308 341.841C540.2 338.439 533.204 333.729 527.319 327.71C521.565 321.561 517.054 314.234 513.784 305.729C510.646 297.093 509.077 287.607 509.077 277.271C509.077 266.804 510.646 257.318 513.784 248.813C517.054 240.308 521.565 233.047 527.319 227.028C533.204 220.878 540.2 216.168 548.308 212.897C556.547 209.495 565.701 207.794 575.771 207.794C585.186 207.794 593.621 209.299 601.075 212.308C608.529 215.318 614.806 219.57 619.906 225.065C625.137 230.561 629.126 237.103 631.872 244.692C634.749 252.28 636.188 260.654 636.188 269.813H615.983C614.675 242.336 601.271 228.598 575.771 228.598C568.709 228.598 562.301 229.776 556.547 232.131C550.793 234.486 545.889 237.822 541.835 242.14C537.781 246.327 534.643 251.43 532.42 257.449C530.196 263.336 529.085 269.944 529.085 277.271ZM705.438 316.72H673.464L668.952 345.178H645.217L666.598 207.794H713.088L734.469 345.178H709.949L705.438 316.72ZM702.692 298.075L689.549 213.486L676.21 298.075H702.692ZM815.561 311.421C815.561 306.318 813.926 302.196 810.657 299.056C807.518 295.916 803.465 293.103 798.495 290.617C793.657 288 788.426 285.579 782.802 283.355C777.179 281 771.883 278.187 766.914 274.916C762.075 271.514 758.021 267.393 754.752 262.551C751.613 257.579 750.044 251.364 750.044 243.907C750.044 237.757 751.156 232.327 753.379 227.617C755.733 222.907 758.871 218.981 762.794 215.841C766.717 212.701 771.36 210.346 776.722 208.776C782.214 207.075 788.099 206.224 794.376 206.224C801.699 206.224 808.172 207.336 813.796 209.561C819.419 211.654 824.061 214.664 827.723 218.589C831.515 222.383 834.327 226.963 836.158 232.327C838.119 237.692 839.1 243.645 839.1 250.187H814.973C814.973 247.308 814.711 244.626 814.188 242.14C813.665 239.523 812.619 237.299 811.049 235.467C809.48 233.505 807.322 231.935 804.576 230.757C801.961 229.579 798.495 228.991 794.18 228.991C791.695 228.991 789.21 229.187 786.726 229.579C784.372 229.972 782.279 230.692 780.449 231.738C778.618 232.785 777.114 234.224 775.937 236.056C774.76 237.888 774.171 240.178 774.171 242.925C774.171 247.636 775.741 251.626 778.879 254.897C782.149 258.037 786.203 260.916 791.041 263.533C795.88 266.15 801.045 268.766 806.538 271.383C812.161 274 817.392 277.075 822.23 280.607C827.069 284.009 831.058 288.196 834.196 293.168C837.465 298.009 839.1 304.093 839.1 311.421C839.1 322.542 835.177 331.243 827.331 337.523C819.484 343.673 808.172 346.748 793.395 346.748C784.503 346.748 776.787 345.57 770.248 343.215C763.84 340.729 758.544 337.458 754.359 333.402C750.175 329.346 747.102 324.701 745.14 319.467C743.178 314.103 742.198 308.477 742.198 302.589H766.325C766.325 305.729 767.044 308.673 768.483 311.421C769.921 314.168 771.883 316.589 774.368 318.682C776.852 320.776 779.729 322.477 782.999 323.785C786.399 324.963 790.06 325.551 793.984 325.551C796.991 325.551 799.803 325.355 802.418 324.963C805.034 324.57 807.322 323.85 809.284 322.804C811.246 321.757 812.749 320.318 813.796 318.486C814.972 316.654 815.561 314.299 815.561 311.421ZM873.221 327.514H956V345.178H849.29V207.794H955.411V225.458H873.417V267.654H955.411V285.318H873.417L873.221 327.514Z" stroke="#161717" stroke-width="0.9" mask="url(#path-1-outside-1_243_204)"/>
</g>
</g>
<defs>
<clipPath id="clip0_243_204">
<rect width="956" height="400" fill="white"/>
</clipPath>
</defs>
</svg>
