<svg width="40" height="40" viewBox="0 0 40 40" fill="none" xmlns="http://www.w3.org/2000/svg">
<rect x="40" y="40" width="40" height="40" rx="20" transform="rotate(-180 40 40)" fill="#F8F8F8" fill-opacity="0.05"/>
<path d="M14.0496 20.9219C14.0919 20.8774 14.1428 20.8421 14.1993 20.8179C14.2557 20.7937 14.3164 20.7812 14.3778 20.7812C14.4391 20.7812 14.4998 20.7937 14.5563 20.8179C14.6127 20.8421 14.6636 20.8774 14.7058 20.9219L19.534 25.7422V13.125C19.534 13.0007 19.5834 12.8814 19.6713 12.7936C19.7592 12.7057 19.8784 12.6562 20.0028 12.6562C20.1271 12.6562 20.2463 12.7057 20.3342 12.7936C20.4221 12.8814 20.4715 13.0007 20.4715 13.125V25.7422L25.2996 20.9219C25.3867 20.8348 25.5047 20.786 25.6278 20.786C25.7508 20.786 25.8689 20.8348 25.9559 20.9219C26.0429 21.0089 26.0918 21.1269 26.0918 21.25C26.0918 21.3731 26.0429 21.4911 25.9559 21.5781L20.3308 27.2031C20.2886 27.2476 20.2377 27.2829 20.1813 27.3071C20.1248 27.3313 20.0641 27.3438 20.0028 27.3438C19.9414 27.3438 19.8807 27.3313 19.8243 27.3071C19.7678 27.2829 19.7169 27.2476 19.6746 27.2031L14.0496 21.5781C14.0052 21.5358 13.9698 21.4849 13.9457 21.4285C13.9215 21.3721 13.909 21.3113 13.909 21.25C13.909 21.1887 13.9215 21.1279 13.9457 21.0715C13.9698 21.0151 14.0052 20.9642 14.0496 20.9219Z" fill="white"/>
<rect x="39.5" y="39.5" width="39" height="39" rx="19.5" transform="rotate(-180 39.5 39.5)" stroke="#F8F8F8" stroke-opacity="0.15"/>
</svg>
