<svg width="33" height="33" viewBox="0 0 33 33" fill="none" xmlns="http://www.w3.org/2000/svg">
<rect x="0.5" y="0.899902" width="32" height="32" rx="16" fill="white" fill-opacity="0.05"/>
<g clip-path="url(#clip0_170_2463)">
<path d="M23.6719 16.9492V16.8999C23.6726 15.8339 23.4349 14.7812 22.9762 13.8189C22.5176 12.8566 21.8495 12.009 21.0211 11.3382L20.986 11.3031L20.9508 11.2749C19.6851 10.2703 18.116 9.72492 16.5 9.72805C15.4258 9.72528 14.3652 9.96819 13.3992 10.4382L13.3148 10.4734C12.3351 10.962 11.4795 11.6674 10.8131 12.536C10.1467 13.4047 9.68693 14.4138 9.46875 15.4867V15.5007C9.37486 15.9612 9.32774 16.43 9.32813 16.8999C9.3284 18.014 9.58847 19.1127 10.0877 20.1087C10.5869 21.1046 11.3115 21.9705 12.2039 22.6374L12.2742 22.6937H12.2883C13.5108 23.5874 14.9856 24.07 16.5 24.0718C17.3121 24.0743 18.1185 23.9363 18.8836 23.664L18.9258 23.6499C20.3039 23.1515 21.4968 22.2441 22.345 21.0491C23.1932 19.8541 23.6561 18.4286 23.6719 16.9632V16.9492ZM22.8141 16.4992C22.5891 16.4851 22.3571 16.478 22.125 16.478C21.0502 16.4768 19.9804 16.6259 18.9469 16.9211C18.6866 16.1319 18.3473 15.371 17.9344 14.6499L17.8992 14.6007C18.9745 13.9672 19.9427 13.1674 20.768 12.2312C21.9782 13.3343 22.712 14.8648 22.8141 16.4992ZM20.1071 11.7038C19.3426 12.5718 18.4427 13.3102 17.4422 13.8906C16.6333 12.7253 15.621 11.7155 14.4539 10.9093C15.3926 10.5901 16.3932 10.4957 17.375 10.6337C18.3569 10.7717 19.2926 11.1383 20.1071 11.7038ZM13.5258 11.3171C14.7706 12.0845 15.847 13.0963 16.6898 14.2913C15.2256 14.9914 13.623 15.3542 12 15.3531C11.4634 15.352 10.9277 15.312 10.3969 15.2335C10.6249 14.4024 11.02 13.6264 11.558 12.9531C12.0959 12.2797 12.7655 11.7231 13.5258 11.3171ZM10.1719 16.8999C10.1729 16.6201 10.1917 16.3406 10.2281 16.0632C10.8148 16.1499 11.4069 16.1945 12 16.1968C13.7871 16.2004 15.5509 15.7913 17.1539 15.0015L17.2031 15.0788C17.5896 15.7448 17.9054 16.4495 18.1454 17.1812C17.5091 17.4085 16.8948 17.6933 16.3102 18.032C14.735 18.9344 13.3935 20.194 12.3938 21.7093C11.6975 21.1162 11.1383 20.3789 10.7547 19.5486C10.3711 18.7183 10.1722 17.8146 10.1719 16.8999ZM13.0688 22.2155C14.3446 20.2818 16.2008 18.8024 18.3704 17.9898C18.5729 18.823 18.6744 19.6776 18.6727 20.5351C18.6758 21.3419 18.5861 22.1464 18.4055 22.9328C17.5181 23.214 16.5794 23.2955 15.6569 23.1716C14.7342 23.0476 13.8504 22.7211 13.0688 22.2155ZM19.3477 22.553C19.46 21.8863 19.5164 21.2113 19.5164 20.5351C19.5173 19.5898 19.404 18.6478 19.1789 17.7296C20.1378 17.4604 21.129 17.3232 22.125 17.3218C22.3571 17.3218 22.5821 17.3288 22.8141 17.3429C22.7361 18.437 22.3758 19.4921 21.7682 20.4053C21.1607 21.3185 20.3267 22.0585 19.3477 22.553Z" fill="white"/>
</g>
<rect x="1" y="1.3999" width="31" height="31" rx="15.5" stroke="white" stroke-opacity="0.15"/>
<defs>
<clipPath id="clip0_170_2463">
<rect width="18" height="18" fill="white" transform="translate(7.5 7.8999)"/>
</clipPath>
</defs>
</svg>
