<svg id="Layer_1" data-name="Layer 1" xmlns="http://www.w3.org/2000/svg" viewBox="0 0 40 40"><defs><style>.cls-1,.cls-3{fill:#f8f8f8;}.cls-1{fill-opacity:0.05;}.cls-2{fill:none;stroke:#f8f8f8;stroke-opacity:0.15;}</style></defs><path class="cls-1" d="M20,40h0A20,20,0,0,1,0,20H0A20,20,0,0,1,20,0h0A20,20,0,0,1,40,20h0A20,20,0,0,1,20,40Z" transform="translate(0 0)"/><path class="cls-2" d="M20,39.5h0A19.5,19.5,0,0,1,.5,20h0A19.5,19.5,0,0,1,20,.5h0A19.5,19.5,0,0,1,39.5,20h0A19.5,19.5,0,0,1,20,39.5Z" transform="translate(0 0)"/><path class="cls-3" d="M24.86,23.56a.39.39,0,0,1-.18,0,.46.46,0,0,1-.25-.25.39.39,0,0,1,0-.18V16.27l-8.92,8.92a.47.47,0,0,1-.33.14.48.48,0,0,1-.34-.14.48.48,0,0,1,0-.66l8.93-8.92H16.9a.46.46,0,0,1-.32-.13.47.47,0,0,1-.14-.33.45.45,0,0,1,.14-.33.43.43,0,0,1,.32-.14h8a.39.39,0,0,1,.18,0,.31.31,0,0,1,.15.1.4.4,0,0,1,.1.15.52.52,0,0,1,0,.18v8a.57.57,0,0,1,0,.18.4.4,0,0,1-.1.15.31.31,0,0,1-.15.1A.39.39,0,0,1,24.86,23.56Z" transform="translate(0 0)"/></svg>