<svg width="35" height="35" viewBox="0 0 35 35" fill="none" xmlns="http://www.w3.org/2000/svg">
<rect x="0.5" y="0.899902" width="34" height="34" rx="17" fill="#F8F8F8" fill-opacity="0.05"/>
<path d="M17.5 14.6655C16.8603 14.6655 16.235 14.8552 15.7031 15.2106C15.1712 15.566 14.7566 16.0712 14.5118 16.6622C14.267 17.2532 14.203 17.9035 14.3278 18.5309C14.4526 19.1583 14.7606 19.7346 15.2129 20.187C15.6653 20.6393 16.2416 20.9473 16.869 21.0721C17.4964 21.1969 18.1467 21.1329 18.7377 20.8881C19.3287 20.6433 19.8338 20.2287 20.1893 19.6968C20.5447 19.1649 20.7344 18.5396 20.7344 17.8999C20.7344 17.0421 20.3936 16.2194 19.7871 15.6129C19.1805 15.0063 18.3578 14.6655 17.5 14.6655ZM17.5 20.2905C17.0272 20.2905 16.565 20.1504 16.1718 19.8876C15.7787 19.625 15.4723 19.2516 15.2913 18.8148C15.1104 18.378 15.0631 17.8973 15.1553 17.4335C15.2476 16.9698 15.4752 16.5438 15.8096 16.2095C16.1439 15.8751 16.5699 15.6475 17.0336 15.5552C17.4974 15.463 17.978 15.5103 18.4149 15.6912C18.8517 15.8722 19.2251 16.1786 19.4877 16.5717C19.7505 16.9649 19.8906 17.4271 19.8906 17.8999C19.8888 18.5334 19.6363 19.1403 19.1884 19.5883C18.7404 20.0362 18.1335 20.2887 17.5 20.2905ZM20.5938 11.0093H14.4062C13.3993 11.0093 12.4335 11.4093 11.7215 12.1214C11.0094 12.8334 10.6094 13.7992 10.6094 14.8062V20.9937C10.6094 22.0007 11.0094 22.9664 11.7215 23.6784C12.4335 24.3905 13.3993 24.7905 14.4062 24.7905H20.5938C21.6008 24.7905 22.5665 24.3905 23.2785 23.6784C23.9906 22.9664 24.3906 22.0007 24.3906 20.9937V14.8062C24.3906 13.7992 23.9906 12.8334 23.2785 12.1214C22.5665 11.4093 21.6008 11.0093 20.5938 11.0093ZM23.5469 20.9937C23.5469 21.7769 23.2358 22.528 22.6819 23.0818C22.1281 23.6357 21.377 23.9468 20.5938 23.9468H14.4062C13.623 23.9468 12.8719 23.6357 12.3181 23.0818C11.7643 22.528 11.4531 21.7769 11.4531 20.9937V14.8062C11.4531 14.0229 11.7643 13.2718 12.3181 12.718C12.8719 12.1642 13.623 11.853 14.4062 11.853H20.5938C21.377 11.853 22.1281 12.1642 22.6819 12.718C23.2358 13.2718 23.5469 14.0229 23.5469 14.8062V20.9937ZM21.8594 14.2437C21.8594 14.3827 21.8181 14.5187 21.7409 14.6343C21.6636 14.7499 21.5538 14.84 21.4254 14.8933C21.2969 14.9465 21.1555 14.9604 21.0191 14.9333C20.8827 14.9061 20.7574 14.8392 20.6591 14.7408C20.5607 14.6425 20.4938 14.5172 20.4666 14.3808C20.4395 14.2444 20.4534 14.1031 20.5067 13.9746C20.5598 13.8461 20.65 13.7363 20.7656 13.659C20.8812 13.5818 21.0172 13.5405 21.1562 13.5405C21.3427 13.5405 21.5216 13.6146 21.6534 13.7465C21.7853 13.8783 21.8594 14.0572 21.8594 14.2437Z" fill="white"/>
<rect x="1" y="1.3999" width="33" height="33" rx="16.5" stroke="#F8F8F8" stroke-opacity="0.15"/>
</svg>
