<svg width="65" height="40" viewBox="0 0 65 40" fill="none" xmlns="http://www.w3.org/2000/svg">
<path d="M30 16.566V39.8999L15.3261 31.3067C15.1957 31.3067 15.1304 31.3067 15 31.3067C6.71739 31.3067 0 24.4982 0 16.1033C0 7.70838 6.71739 0.899902 15 0.899902C23.2826 0.899902 30 7.70838 30 16.1033C30 16.2355 30 16.4338 30 16.566Z" fill="#161717"/>
<path d="M65 16.566V39.8999L50.3261 31.3067C50.1957 31.3067 50.1304 31.3067 50 31.3067C41.7174 31.3067 35 24.4982 35 16.1033C35 7.70838 41.7174 0.899902 50 0.899902C58.2826 0.899902 65 7.70838 65 16.1033C65 16.2355 65 16.4338 65 16.566Z" fill="#161717"/>
</svg>
