<svg width="41" height="41" viewBox="0 0 41 41" fill="none" xmlns="http://www.w3.org/2000/svg">
<rect x="0.5" y="0.899902" width="40" height="40" rx="20" fill="#F8F8F8" fill-opacity="0.05"/>
<path d="M26.4504 19.978C26.4081 20.0225 26.3572 20.0578 26.3007 20.082C26.2443 20.1062 26.1836 20.1187 26.1222 20.1187C26.0609 20.1187 26.0002 20.1062 25.9437 20.082C25.8873 20.0578 25.8364 20.0225 25.7942 19.978L20.966 15.1577V27.7749C20.966 27.8992 20.9166 28.0185 20.8287 28.1063C20.7408 28.1942 20.6216 28.2437 20.4972 28.2437C20.3729 28.2437 20.2537 28.1942 20.1658 28.1063C20.0779 28.0185 20.0285 27.8992 20.0285 27.7749V15.1577L15.2004 19.978C15.1133 20.0651 14.9953 20.1139 14.8722 20.1139C14.7492 20.1139 14.6311 20.0651 14.5441 19.978C14.4571 19.891 14.4082 19.773 14.4082 19.6499C14.4082 19.5268 14.4571 19.4088 14.5441 19.3218L20.1692 13.6968C20.2114 13.6523 20.2623 13.617 20.3187 13.5928C20.3752 13.5686 20.4359 13.5562 20.4972 13.5562C20.5586 13.5562 20.6193 13.5686 20.6757 13.5928C20.7322 13.617 20.7831 13.6523 20.8254 13.6968L26.4504 19.3218C26.4948 19.3641 26.5302 19.415 26.5543 19.4714C26.5785 19.5278 26.591 19.5886 26.591 19.6499C26.591 19.7112 26.5785 19.772 26.5543 19.8284C26.5302 19.8848 26.4948 19.9357 26.4504 19.978Z" fill="white"/>
<rect x="1" y="1.3999" width="39" height="39" rx="19.5" stroke="#F8F8F8" stroke-opacity="0.15"/>
</svg>
