<svg width="24" height="25" viewBox="0 0 24 25" fill="none" xmlns="http://www.w3.org/2000/svg">
<path d="M23.3703 20.3358L23.3704 20.3357C23.5976 20.1085 23.725 19.8005 23.725 19.4793V2.38618C23.725 2.06502 23.5976 1.75697 23.3704 1.52979L23.3703 1.52969C23.1431 1.30266 22.8351 1.17505 22.5141 1.17502H5.42079H5.42077C5.0996 1.17505 4.79153 1.30263 4.56438 1.52977L4.56437 1.52978C4.33727 1.75691 4.20966 2.06495 4.20966 2.38618C4.20966 2.7074 4.33727 3.01544 4.56437 3.24257L4.56438 3.24258C4.79152 3.46972 5.09959 3.59733 5.42079 3.59733H19.5878L0.626847 22.5745C0.626818 22.5745 0.626789 22.5745 0.626759 22.5746C0.401524 22.7998 0.275 23.1052 0.275 23.4239C0.275 23.7425 0.401556 24.048 0.626847 24.2733C0.852113 24.4985 1.15765 24.625 1.47622 24.625C1.79479 24.625 2.10031 24.4985 2.32557 24.2733C2.32558 24.2733 2.3256 24.2733 2.32562 24.2733L21.3028 5.31222V19.4793C21.3028 19.8005 21.4303 20.1085 21.6574 20.3357L21.6575 20.3358C21.8847 20.5627 22.1927 20.6905 22.514 20.6905C22.8352 20.6905 23.1431 20.5627 23.3703 20.3358Z" fill="#161717" stroke="#161717" stroke-width="0.45"/>
</svg>
